<mxfile host="Electron" agent="Mozilla/5.0 (Windows NT 10.0; Win64; x64) AppleWebKit/537.36 (KHTML, like Gecko) draw.io/24.7.17 Chrome/128.0.6613.36 Electron/32.0.1 Safari/537.36" version="24.7.17" pages="2">
  <diagram name="MCD" id="n5eA6WAv_C_n8bcn-xbX">
    <mxGraphModel dx="1434" dy="836" grid="1" gridSize="10" guides="1" tooltips="1" connect="1" arrows="1" fold="1" page="1" pageScale="1" pageWidth="1169" pageHeight="827" math="0" shadow="0">
      <root>
        <mxCell id="kpHg-WS_h5mBCmfEPbr3-0" />
        <mxCell id="kpHg-WS_h5mBCmfEPbr3-1" parent="kpHg-WS_h5mBCmfEPbr3-0" />
        <mxCell id="kpHg-WS_h5mBCmfEPbr3-2" value="users" style="swimlane;fontStyle=0;childLayout=stackLayout;horizontal=1;startSize=30;horizontalStack=0;resizeParent=1;resizeParentMax=0;resizeLast=0;collapsible=1;marginBottom=0;whiteSpace=wrap;html=1;" parent="kpHg-WS_h5mBCmfEPbr3-1" vertex="1">
          <mxGeometry x="780" y="480" width="140" height="270" as="geometry" />
        </mxCell>
        <mxCell id="kpHg-WS_h5mBCmfEPbr3-3" value="id" style="text;strokeColor=none;fillColor=none;align=left;verticalAlign=middle;spacingLeft=4;spacingRight=4;overflow=hidden;points=[[0,0.5],[1,0.5]];portConstraint=eastwest;rotatable=0;whiteSpace=wrap;html=1;" parent="kpHg-WS_h5mBCmfEPbr3-2" vertex="1">
          <mxGeometry y="30" width="140" height="30" as="geometry" />
        </mxCell>
        <mxCell id="kpHg-WS_h5mBCmfEPbr3-4" value="username" style="text;strokeColor=none;fillColor=none;align=left;verticalAlign=middle;spacingLeft=4;spacingRight=4;overflow=hidden;points=[[0,0.5],[1,0.5]];portConstraint=eastwest;rotatable=0;whiteSpace=wrap;html=1;" parent="kpHg-WS_h5mBCmfEPbr3-2" vertex="1">
          <mxGeometry y="60" width="140" height="30" as="geometry" />
        </mxCell>
        <mxCell id="kpHg-WS_h5mBCmfEPbr3-7" value="password" style="text;strokeColor=none;fillColor=none;align=left;verticalAlign=middle;spacingLeft=4;spacingRight=4;overflow=hidden;points=[[0,0.5],[1,0.5]];portConstraint=eastwest;rotatable=0;whiteSpace=wrap;html=1;" parent="kpHg-WS_h5mBCmfEPbr3-2" vertex="1">
          <mxGeometry y="90" width="140" height="30" as="geometry" />
        </mxCell>
        <mxCell id="kpHg-WS_h5mBCmfEPbr3-8" value="email" style="text;strokeColor=none;fillColor=none;align=left;verticalAlign=middle;spacingLeft=4;spacingRight=4;overflow=hidden;points=[[0,0.5],[1,0.5]];portConstraint=eastwest;rotatable=0;whiteSpace=wrap;html=1;" parent="kpHg-WS_h5mBCmfEPbr3-2" vertex="1">
          <mxGeometry y="120" width="140" height="30" as="geometry" />
        </mxCell>
        <mxCell id="kpHg-WS_h5mBCmfEPbr3-9" value="statues" style="text;strokeColor=none;fillColor=none;align=left;verticalAlign=middle;spacingLeft=4;spacingRight=4;overflow=hidden;points=[[0,0.5],[1,0.5]];portConstraint=eastwest;rotatable=0;whiteSpace=wrap;html=1;" parent="kpHg-WS_h5mBCmfEPbr3-2" vertex="1">
          <mxGeometry y="150" width="140" height="30" as="geometry" />
        </mxCell>
        <mxCell id="eSSgnovP-sxsgvO_Ltb2-0" value="created_at" style="text;strokeColor=none;fillColor=none;align=left;verticalAlign=middle;spacingLeft=4;spacingRight=4;overflow=hidden;points=[[0,0.5],[1,0.5]];portConstraint=eastwest;rotatable=0;whiteSpace=wrap;html=1;" parent="kpHg-WS_h5mBCmfEPbr3-2" vertex="1">
          <mxGeometry y="180" width="140" height="30" as="geometry" />
        </mxCell>
        <mxCell id="8pOPjc3KgVID-YLlUqNs-2" value="last_connection" style="text;strokeColor=none;fillColor=none;align=left;verticalAlign=middle;spacingLeft=4;spacingRight=4;overflow=hidden;points=[[0,0.5],[1,0.5]];portConstraint=eastwest;rotatable=0;whiteSpace=wrap;html=1;" parent="kpHg-WS_h5mBCmfEPbr3-2" vertex="1">
          <mxGeometry y="210" width="140" height="30" as="geometry" />
        </mxCell>
        <mxCell id="kpHg-WS_h5mBCmfEPbr3-10" value="roles_id" style="text;strokeColor=none;fillColor=none;align=left;verticalAlign=middle;spacingLeft=4;spacingRight=4;overflow=hidden;points=[[0,0.5],[1,0.5]];portConstraint=eastwest;rotatable=0;whiteSpace=wrap;html=1;" parent="kpHg-WS_h5mBCmfEPbr3-2" vertex="1">
          <mxGeometry y="240" width="140" height="30" as="geometry" />
        </mxCell>
        <mxCell id="kpHg-WS_h5mBCmfEPbr3-11" value="roles" style="swimlane;fontStyle=0;childLayout=stackLayout;horizontal=1;startSize=30;horizontalStack=0;resizeParent=1;resizeParentMax=0;resizeLast=0;collapsible=1;marginBottom=0;whiteSpace=wrap;html=1;" parent="kpHg-WS_h5mBCmfEPbr3-1" vertex="1">
          <mxGeometry x="1010" y="450" width="140" height="90" as="geometry" />
        </mxCell>
        <mxCell id="kpHg-WS_h5mBCmfEPbr3-12" value="id" style="text;strokeColor=none;fillColor=none;align=left;verticalAlign=middle;spacingLeft=4;spacingRight=4;overflow=hidden;points=[[0,0.5],[1,0.5]];portConstraint=eastwest;rotatable=0;whiteSpace=wrap;html=1;" parent="kpHg-WS_h5mBCmfEPbr3-11" vertex="1">
          <mxGeometry y="30" width="140" height="30" as="geometry" />
        </mxCell>
        <mxCell id="kpHg-WS_h5mBCmfEPbr3-13" value="roles_name" style="text;strokeColor=none;fillColor=none;align=left;verticalAlign=middle;spacingLeft=4;spacingRight=4;overflow=hidden;points=[[0,0.5],[1,0.5]];portConstraint=eastwest;rotatable=0;whiteSpace=wrap;html=1;" parent="kpHg-WS_h5mBCmfEPbr3-11" vertex="1">
          <mxGeometry y="60" width="140" height="30" as="geometry" />
        </mxCell>
        <mxCell id="kpHg-WS_h5mBCmfEPbr3-14" value="sheets" style="swimlane;fontStyle=0;childLayout=stackLayout;horizontal=1;startSize=30;horizontalStack=0;resizeParent=1;resizeParentMax=0;resizeLast=0;collapsible=1;marginBottom=0;whiteSpace=wrap;html=1;" parent="kpHg-WS_h5mBCmfEPbr3-1" vertex="1">
          <mxGeometry x="320" y="240" width="150" height="240" as="geometry" />
        </mxCell>
        <mxCell id="kpHg-WS_h5mBCmfEPbr3-15" value="id" style="text;strokeColor=none;fillColor=none;align=left;verticalAlign=middle;spacingLeft=4;spacingRight=4;overflow=hidden;points=[[0,0.5],[1,0.5]];portConstraint=eastwest;rotatable=0;whiteSpace=wrap;html=1;" parent="kpHg-WS_h5mBCmfEPbr3-14" vertex="1">
          <mxGeometry y="30" width="150" height="30" as="geometry" />
        </mxCell>
        <mxCell id="kpHg-WS_h5mBCmfEPbr3-16" value="title" style="text;strokeColor=none;fillColor=none;align=left;verticalAlign=middle;spacingLeft=4;spacingRight=4;overflow=hidden;points=[[0,0.5],[1,0.5]];portConstraint=eastwest;rotatable=0;whiteSpace=wrap;html=1;" parent="kpHg-WS_h5mBCmfEPbr3-14" vertex="1">
          <mxGeometry y="60" width="150" height="30" as="geometry" />
        </mxCell>
        <mxCell id="kpHg-WS_h5mBCmfEPbr3-17" value="description" style="text;strokeColor=none;fillColor=none;align=left;verticalAlign=middle;spacingLeft=4;spacingRight=4;overflow=hidden;points=[[0,0.5],[1,0.5]];portConstraint=eastwest;rotatable=0;whiteSpace=wrap;html=1;" parent="kpHg-WS_h5mBCmfEPbr3-14" vertex="1">
          <mxGeometry y="90" width="150" height="30" as="geometry" />
        </mxCell>
        <mxCell id="kpHg-WS_h5mBCmfEPbr3-18" value="created_at" style="text;strokeColor=none;fillColor=none;align=left;verticalAlign=middle;spacingLeft=4;spacingRight=4;overflow=hidden;points=[[0,0.5],[1,0.5]];portConstraint=eastwest;rotatable=0;whiteSpace=wrap;html=1;" parent="kpHg-WS_h5mBCmfEPbr3-14" vertex="1">
          <mxGeometry y="120" width="150" height="30" as="geometry" />
        </mxCell>
        <mxCell id="kpHg-WS_h5mBCmfEPbr3-19" value="updated_at" style="text;strokeColor=none;fillColor=none;align=left;verticalAlign=middle;spacingLeft=4;spacingRight=4;overflow=hidden;points=[[0,0.5],[1,0.5]];portConstraint=eastwest;rotatable=0;whiteSpace=wrap;html=1;" parent="kpHg-WS_h5mBCmfEPbr3-14" vertex="1">
          <mxGeometry y="150" width="150" height="30" as="geometry" />
        </mxCell>
        <mxCell id="J7MhDaF3xDCpfY1-4Y8R-0" value="status" style="text;strokeColor=none;fillColor=none;align=left;verticalAlign=middle;spacingLeft=4;spacingRight=4;overflow=hidden;points=[[0,0.5],[1,0.5]];portConstraint=eastwest;rotatable=0;whiteSpace=wrap;html=1;" parent="kpHg-WS_h5mBCmfEPbr3-14" vertex="1">
          <mxGeometry y="180" width="150" height="30" as="geometry" />
        </mxCell>
        <mxCell id="kpHg-WS_h5mBCmfEPbr3-20" value="user_id" style="text;strokeColor=none;fillColor=none;align=left;verticalAlign=middle;spacingLeft=4;spacingRight=4;overflow=hidden;points=[[0,0.5],[1,0.5]];portConstraint=eastwest;rotatable=0;whiteSpace=wrap;html=1;" parent="kpHg-WS_h5mBCmfEPbr3-14" vertex="1">
          <mxGeometry y="210" width="150" height="30" as="geometry" />
        </mxCell>
        <mxCell id="kpHg-WS_h5mBCmfEPbr3-21" value="tags" style="swimlane;fontStyle=0;childLayout=stackLayout;horizontal=1;startSize=30;horizontalStack=0;resizeParent=1;resizeParentMax=0;resizeLast=0;collapsible=1;marginBottom=0;whiteSpace=wrap;html=1;" parent="kpHg-WS_h5mBCmfEPbr3-1" vertex="1">
          <mxGeometry x="1110" y="60" width="140" height="90" as="geometry" />
        </mxCell>
        <mxCell id="kpHg-WS_h5mBCmfEPbr3-22" value="id" style="text;strokeColor=none;fillColor=none;align=left;verticalAlign=middle;spacingLeft=4;spacingRight=4;overflow=hidden;points=[[0,0.5],[1,0.5]];portConstraint=eastwest;rotatable=0;whiteSpace=wrap;html=1;" parent="kpHg-WS_h5mBCmfEPbr3-21" vertex="1">
          <mxGeometry y="30" width="140" height="30" as="geometry" />
        </mxCell>
        <mxCell id="kpHg-WS_h5mBCmfEPbr3-23" value="names_tag" style="text;strokeColor=none;fillColor=none;align=left;verticalAlign=middle;spacingLeft=4;spacingRight=4;overflow=hidden;points=[[0,0.5],[1,0.5]];portConstraint=eastwest;rotatable=0;whiteSpace=wrap;html=1;" parent="kpHg-WS_h5mBCmfEPbr3-21" vertex="1">
          <mxGeometry y="60" width="140" height="30" as="geometry" />
        </mxCell>
        <mxCell id="kpHg-WS_h5mBCmfEPbr3-24" value="sheet_tags" style="swimlane;fontStyle=0;childLayout=stackLayout;horizontal=1;startSize=30;horizontalStack=0;resizeParent=1;resizeParentMax=0;resizeLast=0;collapsible=1;marginBottom=0;whiteSpace=wrap;html=1;" parent="kpHg-WS_h5mBCmfEPbr3-1" vertex="1">
          <mxGeometry x="710" y="60" width="140" height="90" as="geometry" />
        </mxCell>
        <mxCell id="kpHg-WS_h5mBCmfEPbr3-25" value="sheets_id" style="text;strokeColor=none;fillColor=none;align=left;verticalAlign=middle;spacingLeft=4;spacingRight=4;overflow=hidden;points=[[0,0.5],[1,0.5]];portConstraint=eastwest;rotatable=0;whiteSpace=wrap;html=1;" parent="kpHg-WS_h5mBCmfEPbr3-24" vertex="1">
          <mxGeometry y="30" width="140" height="30" as="geometry" />
        </mxCell>
        <mxCell id="kpHg-WS_h5mBCmfEPbr3-26" value="tags_id" style="text;strokeColor=none;fillColor=none;align=left;verticalAlign=middle;spacingLeft=4;spacingRight=4;overflow=hidden;points=[[0,0.5],[1,0.5]];portConstraint=eastwest;rotatable=0;whiteSpace=wrap;html=1;" parent="kpHg-WS_h5mBCmfEPbr3-24" vertex="1">
          <mxGeometry y="60" width="140" height="30" as="geometry" />
        </mxCell>
        <mxCell id="kpHg-WS_h5mBCmfEPbr3-27" value="dropzone_items" style="swimlane;fontStyle=0;childLayout=stackLayout;horizontal=1;startSize=30;horizontalStack=0;resizeParent=1;resizeParentMax=0;resizeLast=0;collapsible=1;marginBottom=0;whiteSpace=wrap;html=1;" parent="kpHg-WS_h5mBCmfEPbr3-1" vertex="1">
          <mxGeometry x="170" y="345" width="140" height="540" as="geometry" />
        </mxCell>
        <mxCell id="kpHg-WS_h5mBCmfEPbr3-28" value="id" style="text;strokeColor=none;fillColor=none;align=left;verticalAlign=middle;spacingLeft=4;spacingRight=4;overflow=hidden;points=[[0,0.5],[1,0.5]];portConstraint=eastwest;rotatable=0;whiteSpace=wrap;html=1;" parent="kpHg-WS_h5mBCmfEPbr3-27" vertex="1">
          <mxGeometry y="30" width="140" height="30" as="geometry" />
        </mxCell>
        <mxCell id="kpHg-WS_h5mBCmfEPbr3-29" value="sheets_id" style="text;strokeColor=none;fillColor=none;align=left;verticalAlign=middle;spacingLeft=4;spacingRight=4;overflow=hidden;points=[[0,0.5],[1,0.5]];portConstraint=eastwest;rotatable=0;whiteSpace=wrap;html=1;" parent="kpHg-WS_h5mBCmfEPbr3-27" vertex="1">
          <mxGeometry y="60" width="140" height="30" as="geometry" />
        </mxCell>
        <mxCell id="fkiZk85_ItUjP35LTfme-0" value="id_items" style="text;strokeColor=none;fillColor=none;align=left;verticalAlign=middle;spacingLeft=4;spacingRight=4;overflow=hidden;points=[[0,0.5],[1,0.5]];portConstraint=eastwest;rotatable=0;whiteSpace=wrap;html=1;" parent="kpHg-WS_h5mBCmfEPbr3-27" vertex="1">
          <mxGeometry y="90" width="140" height="30" as="geometry" />
        </mxCell>
        <mxCell id="kpHg-WS_h5mBCmfEPbr3-30" value="x" style="text;strokeColor=none;fillColor=none;align=left;verticalAlign=middle;spacingLeft=4;spacingRight=4;overflow=hidden;points=[[0,0.5],[1,0.5]];portConstraint=eastwest;rotatable=0;whiteSpace=wrap;html=1;" parent="kpHg-WS_h5mBCmfEPbr3-27" vertex="1">
          <mxGeometry y="120" width="140" height="30" as="geometry" />
        </mxCell>
        <mxCell id="kpHg-WS_h5mBCmfEPbr3-31" value="y" style="text;strokeColor=none;fillColor=none;align=left;verticalAlign=middle;spacingLeft=4;spacingRight=4;overflow=hidden;points=[[0,0.5],[1,0.5]];portConstraint=eastwest;rotatable=0;whiteSpace=wrap;html=1;" parent="kpHg-WS_h5mBCmfEPbr3-27" vertex="1">
          <mxGeometry y="150" width="140" height="30" as="geometry" />
        </mxCell>
        <mxCell id="kpHg-WS_h5mBCmfEPbr3-32" value="width" style="text;strokeColor=none;fillColor=none;align=left;verticalAlign=middle;spacingLeft=4;spacingRight=4;overflow=hidden;points=[[0,0.5],[1,0.5]];portConstraint=eastwest;rotatable=0;whiteSpace=wrap;html=1;" parent="kpHg-WS_h5mBCmfEPbr3-27" vertex="1">
          <mxGeometry y="180" width="140" height="30" as="geometry" />
        </mxCell>
        <mxCell id="kpHg-WS_h5mBCmfEPbr3-33" value="height" style="text;strokeColor=none;fillColor=none;align=left;verticalAlign=middle;spacingLeft=4;spacingRight=4;overflow=hidden;points=[[0,0.5],[1,0.5]];portConstraint=eastwest;rotatable=0;whiteSpace=wrap;html=1;" parent="kpHg-WS_h5mBCmfEPbr3-27" vertex="1">
          <mxGeometry y="210" width="140" height="30" as="geometry" />
        </mxCell>
        <mxCell id="oVbSK_eIqsQPegMEGpvU-0" value="type" style="text;strokeColor=none;fillColor=none;align=left;verticalAlign=middle;spacingLeft=4;spacingRight=4;overflow=hidden;points=[[0,0.5],[1,0.5]];portConstraint=eastwest;rotatable=0;whiteSpace=wrap;html=1;" parent="kpHg-WS_h5mBCmfEPbr3-27" vertex="1">
          <mxGeometry y="240" width="140" height="30" as="geometry" />
        </mxCell>
        <mxCell id="kpHg-WS_h5mBCmfEPbr3-34" value="backgroundColor" style="text;strokeColor=none;fillColor=none;align=left;verticalAlign=middle;spacingLeft=4;spacingRight=4;overflow=hidden;points=[[0,0.5],[1,0.5]];portConstraint=eastwest;rotatable=0;whiteSpace=wrap;html=1;" parent="kpHg-WS_h5mBCmfEPbr3-27" vertex="1">
          <mxGeometry y="270" width="140" height="30" as="geometry" />
        </mxCell>
        <mxCell id="kpHg-WS_h5mBCmfEPbr3-35" value="text" style="text;strokeColor=none;fillColor=none;align=left;verticalAlign=middle;spacingLeft=4;spacingRight=4;overflow=hidden;points=[[0,0.5],[1,0.5]];portConstraint=eastwest;rotatable=0;whiteSpace=wrap;html=1;" parent="kpHg-WS_h5mBCmfEPbr3-27" vertex="1">
          <mxGeometry y="300" width="140" height="30" as="geometry" />
        </mxCell>
        <mxCell id="kpHg-WS_h5mBCmfEPbr3-36" value="fontSize" style="text;strokeColor=none;fillColor=none;align=left;verticalAlign=middle;spacingLeft=4;spacingRight=4;overflow=hidden;points=[[0,0.5],[1,0.5]];portConstraint=eastwest;rotatable=0;whiteSpace=wrap;html=1;" parent="kpHg-WS_h5mBCmfEPbr3-27" vertex="1">
          <mxGeometry y="330" width="140" height="30" as="geometry" />
        </mxCell>
        <mxCell id="kpHg-WS_h5mBCmfEPbr3-37" value="color" style="text;strokeColor=none;fillColor=none;align=left;verticalAlign=middle;spacingLeft=4;spacingRight=4;overflow=hidden;points=[[0,0.5],[1,0.5]];portConstraint=eastwest;rotatable=0;whiteSpace=wrap;html=1;" parent="kpHg-WS_h5mBCmfEPbr3-27" vertex="1">
          <mxGeometry y="360" width="140" height="30" as="geometry" />
        </mxCell>
        <mxCell id="kpHg-WS_h5mBCmfEPbr3-38" value="borderStyle" style="text;strokeColor=none;fillColor=none;align=left;verticalAlign=middle;spacingLeft=4;spacingRight=4;overflow=hidden;points=[[0,0.5],[1,0.5]];portConstraint=eastwest;rotatable=0;whiteSpace=wrap;html=1;" parent="kpHg-WS_h5mBCmfEPbr3-27" vertex="1">
          <mxGeometry y="390" width="140" height="30" as="geometry" />
        </mxCell>
        <mxCell id="kpHg-WS_h5mBCmfEPbr3-39" value="borderWidth" style="text;strokeColor=none;fillColor=none;align=left;verticalAlign=middle;spacingLeft=4;spacingRight=4;overflow=hidden;points=[[0,0.5],[1,0.5]];portConstraint=eastwest;rotatable=0;whiteSpace=wrap;html=1;" parent="kpHg-WS_h5mBCmfEPbr3-27" vertex="1">
          <mxGeometry y="420" width="140" height="30" as="geometry" />
        </mxCell>
        <mxCell id="kpHg-WS_h5mBCmfEPbr3-40" value="borderColor" style="text;strokeColor=none;fillColor=none;align=left;verticalAlign=middle;spacingLeft=4;spacingRight=4;overflow=hidden;points=[[0,0.5],[1,0.5]];portConstraint=eastwest;rotatable=0;whiteSpace=wrap;html=1;" parent="kpHg-WS_h5mBCmfEPbr3-27" vertex="1">
          <mxGeometry y="450" width="140" height="30" as="geometry" />
        </mxCell>
        <mxCell id="kpHg-WS_h5mBCmfEPbr3-41" value="borderRadius" style="text;strokeColor=none;fillColor=none;align=left;verticalAlign=middle;spacingLeft=4;spacingRight=4;overflow=hidden;points=[[0,0.5],[1,0.5]];portConstraint=eastwest;rotatable=0;whiteSpace=wrap;html=1;" parent="kpHg-WS_h5mBCmfEPbr3-27" vertex="1">
          <mxGeometry y="480" width="140" height="30" as="geometry" />
        </mxCell>
        <mxCell id="kpHg-WS_h5mBCmfEPbr3-42" value="zIndex" style="text;strokeColor=none;fillColor=none;align=left;verticalAlign=middle;spacingLeft=4;spacingRight=4;overflow=hidden;points=[[0,0.5],[1,0.5]];portConstraint=eastwest;rotatable=0;whiteSpace=wrap;html=1;" parent="kpHg-WS_h5mBCmfEPbr3-27" vertex="1">
          <mxGeometry y="510" width="140" height="30" as="geometry" />
        </mxCell>
        <mxCell id="kpHg-WS_h5mBCmfEPbr3-44" value="dropzone_background" style="swimlane;fontStyle=0;childLayout=stackLayout;horizontal=1;startSize=30;horizontalStack=0;resizeParent=1;resizeParentMax=0;resizeLast=0;collapsible=1;marginBottom=0;whiteSpace=wrap;html=1;" parent="kpHg-WS_h5mBCmfEPbr3-1" vertex="1">
          <mxGeometry x="140" y="30" width="140" height="120" as="geometry" />
        </mxCell>
        <mxCell id="kpHg-WS_h5mBCmfEPbr3-45" value="id" style="text;strokeColor=none;fillColor=none;align=left;verticalAlign=middle;spacingLeft=4;spacingRight=4;overflow=hidden;points=[[0,0.5],[1,0.5]];portConstraint=eastwest;rotatable=0;whiteSpace=wrap;html=1;" parent="kpHg-WS_h5mBCmfEPbr3-44" vertex="1">
          <mxGeometry y="30" width="140" height="30" as="geometry" />
        </mxCell>
        <mxCell id="kpHg-WS_h5mBCmfEPbr3-46" value="backgroundcolor" style="text;strokeColor=none;fillColor=none;align=left;verticalAlign=middle;spacingLeft=4;spacingRight=4;overflow=hidden;points=[[0,0.5],[1,0.5]];portConstraint=eastwest;rotatable=0;whiteSpace=wrap;html=1;" parent="kpHg-WS_h5mBCmfEPbr3-44" vertex="1">
          <mxGeometry y="60" width="140" height="30" as="geometry" />
        </mxCell>
        <mxCell id="kpHg-WS_h5mBCmfEPbr3-47" value="sheet_id" style="text;strokeColor=none;fillColor=none;align=left;verticalAlign=middle;spacingLeft=4;spacingRight=4;overflow=hidden;points=[[0,0.5],[1,0.5]];portConstraint=eastwest;rotatable=0;whiteSpace=wrap;html=1;" parent="kpHg-WS_h5mBCmfEPbr3-44" vertex="1">
          <mxGeometry y="90" width="140" height="30" as="geometry" />
        </mxCell>
        <mxCell id="kpHg-WS_h5mBCmfEPbr3-48" style="edgeStyle=orthogonalEdgeStyle;rounded=0;orthogonalLoop=1;jettySize=auto;html=1;exitX=1;exitY=0.5;exitDx=0;exitDy=0;" parent="kpHg-WS_h5mBCmfEPbr3-1" source="kpHg-WS_h5mBCmfEPbr3-20" target="kpHg-WS_h5mBCmfEPbr3-3" edge="1">
          <mxGeometry relative="1" as="geometry" />
        </mxCell>
        <mxCell id="kpHg-WS_h5mBCmfEPbr3-49" style="edgeStyle=orthogonalEdgeStyle;rounded=0;orthogonalLoop=1;jettySize=auto;html=1;entryX=1;entryY=0.5;entryDx=0;entryDy=0;" parent="kpHg-WS_h5mBCmfEPbr3-1" source="kpHg-WS_h5mBCmfEPbr3-12" target="kpHg-WS_h5mBCmfEPbr3-10" edge="1">
          <mxGeometry relative="1" as="geometry">
            <mxPoint x="890" y="700" as="sourcePoint" />
            <Array as="points">
              <mxPoint x="980" y="495" />
              <mxPoint x="980" y="735" />
            </Array>
          </mxGeometry>
        </mxCell>
        <mxCell id="kpHg-WS_h5mBCmfEPbr3-50" style="edgeStyle=orthogonalEdgeStyle;rounded=0;orthogonalLoop=1;jettySize=auto;html=1;exitX=0;exitY=0.5;exitDx=0;exitDy=0;entryX=1;entryY=0.5;entryDx=0;entryDy=0;" parent="kpHg-WS_h5mBCmfEPbr3-1" source="kpHg-WS_h5mBCmfEPbr3-23" target="kpHg-WS_h5mBCmfEPbr3-26" edge="1">
          <mxGeometry relative="1" as="geometry" />
        </mxCell>
        <mxCell id="kpHg-WS_h5mBCmfEPbr3-51" style="edgeStyle=orthogonalEdgeStyle;rounded=0;orthogonalLoop=1;jettySize=auto;html=1;exitX=0;exitY=0.5;exitDx=0;exitDy=0;" parent="kpHg-WS_h5mBCmfEPbr3-1" source="kpHg-WS_h5mBCmfEPbr3-25" target="kpHg-WS_h5mBCmfEPbr3-15" edge="1">
          <mxGeometry relative="1" as="geometry" />
        </mxCell>
        <mxCell id="kpHg-WS_h5mBCmfEPbr3-52" style="edgeStyle=orthogonalEdgeStyle;rounded=0;orthogonalLoop=1;jettySize=auto;html=1;exitX=0;exitY=0.5;exitDx=0;exitDy=0;entryX=0;entryY=0.5;entryDx=0;entryDy=0;" parent="kpHg-WS_h5mBCmfEPbr3-1" source="kpHg-WS_h5mBCmfEPbr3-47" target="kpHg-WS_h5mBCmfEPbr3-15" edge="1">
          <mxGeometry relative="1" as="geometry">
            <Array as="points">
              <mxPoint x="70" y="135" />
              <mxPoint x="70" y="285" />
            </Array>
          </mxGeometry>
        </mxCell>
        <mxCell id="kpHg-WS_h5mBCmfEPbr3-53" style="edgeStyle=orthogonalEdgeStyle;rounded=0;orthogonalLoop=1;jettySize=auto;html=1;exitX=0;exitY=0.5;exitDx=0;exitDy=0;" parent="kpHg-WS_h5mBCmfEPbr3-1" edge="1">
          <mxGeometry relative="1" as="geometry">
            <Array as="points">
              <mxPoint x="150" y="420" />
              <mxPoint x="150" y="485" />
              <mxPoint x="70" y="485" />
              <mxPoint x="70" y="300" />
            </Array>
            <mxPoint x="170" y="420" as="sourcePoint" />
            <mxPoint x="320" y="300" as="targetPoint" />
          </mxGeometry>
        </mxCell>
        <mxCell id="kpHg-WS_h5mBCmfEPbr3-54" value="libraries" style="swimlane;fontStyle=0;childLayout=stackLayout;horizontal=1;startSize=30;horizontalStack=0;resizeParent=1;resizeParentMax=0;resizeLast=0;collapsible=1;marginBottom=0;whiteSpace=wrap;html=1;" parent="kpHg-WS_h5mBCmfEPbr3-1" vertex="1">
          <mxGeometry x="930" y="279" width="140" height="120" as="geometry" />
        </mxCell>
        <mxCell id="kpHg-WS_h5mBCmfEPbr3-55" value="id" style="text;strokeColor=none;fillColor=none;align=left;verticalAlign=middle;spacingLeft=4;spacingRight=4;overflow=hidden;points=[[0,0.5],[1,0.5]];portConstraint=eastwest;rotatable=0;whiteSpace=wrap;html=1;" parent="kpHg-WS_h5mBCmfEPbr3-54" vertex="1">
          <mxGeometry y="30" width="140" height="30" as="geometry" />
        </mxCell>
        <mxCell id="kpHg-WS_h5mBCmfEPbr3-56" value="img_path" style="text;strokeColor=none;fillColor=none;align=left;verticalAlign=middle;spacingLeft=4;spacingRight=4;overflow=hidden;points=[[0,0.5],[1,0.5]];portConstraint=eastwest;rotatable=0;whiteSpace=wrap;html=1;" parent="kpHg-WS_h5mBCmfEPbr3-54" vertex="1">
          <mxGeometry y="60" width="140" height="30" as="geometry" />
        </mxCell>
        <mxCell id="kpHg-WS_h5mBCmfEPbr3-57" value="sheet_id" style="text;strokeColor=none;fillColor=none;align=left;verticalAlign=middle;spacingLeft=4;spacingRight=4;overflow=hidden;points=[[0,0.5],[1,0.5]];portConstraint=eastwest;rotatable=0;whiteSpace=wrap;html=1;" parent="kpHg-WS_h5mBCmfEPbr3-54" vertex="1">
          <mxGeometry y="90" width="140" height="30" as="geometry" />
        </mxCell>
        <mxCell id="kpHg-WS_h5mBCmfEPbr3-58" value="" style="endArrow=classic;html=1;rounded=0;exitX=0;exitY=0.5;exitDx=0;exitDy=0;entryX=1;entryY=0.5;entryDx=0;entryDy=0;" parent="kpHg-WS_h5mBCmfEPbr3-1" edge="1">
          <mxGeometry width="50" height="50" relative="1" as="geometry">
            <mxPoint x="930" y="380" as="sourcePoint" />
            <mxPoint x="470" y="300" as="targetPoint" />
            <Array as="points">
              <mxPoint x="680" y="380" />
              <mxPoint x="680" y="300" />
              <mxPoint x="590" y="300" />
            </Array>
          </mxGeometry>
        </mxCell>
        <mxCell id="ZfuypTkgXf1_DiE3y_0M-0" value="1 1" style="text;html=1;align=center;verticalAlign=middle;whiteSpace=wrap;rounded=0;" parent="kpHg-WS_h5mBCmfEPbr3-1" vertex="1">
          <mxGeometry x="620" y="270" width="60" height="30" as="geometry" />
        </mxCell>
        <mxCell id="ZfuypTkgXf1_DiE3y_0M-1" value="1 N" style="text;html=1;align=center;verticalAlign=middle;whiteSpace=wrap;rounded=0;" parent="kpHg-WS_h5mBCmfEPbr3-1" vertex="1">
          <mxGeometry x="80" y="440" width="60" height="30" as="geometry" />
        </mxCell>
        <mxCell id="ZfuypTkgXf1_DiE3y_0M-2" value="N 1" style="text;html=1;align=center;verticalAlign=middle;whiteSpace=wrap;rounded=0;" parent="kpHg-WS_h5mBCmfEPbr3-1" vertex="1">
          <mxGeometry x="490" y="430" width="60" height="30" as="geometry" />
        </mxCell>
        <mxCell id="ZfuypTkgXf1_DiE3y_0M-4" value="1 N" style="text;html=1;align=center;verticalAlign=middle;whiteSpace=wrap;rounded=0;" parent="kpHg-WS_h5mBCmfEPbr3-1" vertex="1">
          <mxGeometry x="1050" y="100" width="60" height="30" as="geometry" />
        </mxCell>
        <mxCell id="ZfuypTkgXf1_DiE3y_0M-5" value="1 N" style="text;html=1;align=center;verticalAlign=middle;whiteSpace=wrap;rounded=0;" parent="kpHg-WS_h5mBCmfEPbr3-1" vertex="1">
          <mxGeometry x="620" y="70" width="60" height="30" as="geometry" />
        </mxCell>
        <mxCell id="ZfuypTkgXf1_DiE3y_0M-6" value="N 1" style="text;html=1;align=center;verticalAlign=middle;whiteSpace=wrap;rounded=0;" parent="kpHg-WS_h5mBCmfEPbr3-1" vertex="1">
          <mxGeometry x="780" y="330" width="60" height="30" as="geometry" />
        </mxCell>
        <mxCell id="KVwOOzoIm6YG3FO3CGfR-0" value="avoir" style="rounded=0;whiteSpace=wrap;html=1;" parent="kpHg-WS_h5mBCmfEPbr3-1" vertex="1">
          <mxGeometry x="20" y="160" width="120" height="60" as="geometry" />
        </mxCell>
        <mxCell id="KVwOOzoIm6YG3FO3CGfR-1" value="contient" style="rounded=0;whiteSpace=wrap;html=1;" parent="kpHg-WS_h5mBCmfEPbr3-1" vertex="1">
          <mxGeometry x="10" y="330" width="120" height="60" as="geometry" />
        </mxCell>
        <mxCell id="KVwOOzoIm6YG3FO3CGfR-2" value="Create" style="rounded=0;whiteSpace=wrap;html=1;" parent="kpHg-WS_h5mBCmfEPbr3-1" vertex="1">
          <mxGeometry x="560" y="450" width="120" height="60" as="geometry" />
        </mxCell>
        <mxCell id="KVwOOzoIm6YG3FO3CGfR-3" value="associer" style="rounded=0;whiteSpace=wrap;html=1;" parent="kpHg-WS_h5mBCmfEPbr3-1" vertex="1">
          <mxGeometry x="530" y="150" width="120" height="60" as="geometry" />
        </mxCell>
        <mxCell id="KVwOOzoIm6YG3FO3CGfR-4" value="classer" style="rounded=0;whiteSpace=wrap;html=1;" parent="kpHg-WS_h5mBCmfEPbr3-1" vertex="1">
          <mxGeometry x="620" y="310" width="120" height="60" as="geometry" />
        </mxCell>
        <mxCell id="KVwOOzoIm6YG3FO3CGfR-6" value="possède" style="rounded=0;whiteSpace=wrap;html=1;" parent="kpHg-WS_h5mBCmfEPbr3-1" vertex="1">
          <mxGeometry x="930" y="600" width="120" height="60" as="geometry" />
        </mxCell>
        <mxCell id="KVwOOzoIm6YG3FO3CGfR-7" value="1 N" style="text;html=1;align=center;verticalAlign=middle;whiteSpace=wrap;rounded=0;" parent="kpHg-WS_h5mBCmfEPbr3-1" vertex="1">
          <mxGeometry x="980" y="560" width="60" height="30" as="geometry" />
        </mxCell>
        <mxCell id="8pOPjc3KgVID-YLlUqNs-0" value="associer" style="rounded=0;whiteSpace=wrap;html=1;" parent="kpHg-WS_h5mBCmfEPbr3-1" vertex="1">
          <mxGeometry x="930" y="110" width="120" height="60" as="geometry" />
        </mxCell>
        <mxCell id="8ebgLlThYvrYyOkLJIm1-0" value="1 1" style="text;html=1;align=center;verticalAlign=middle;whiteSpace=wrap;rounded=0;" parent="kpHg-WS_h5mBCmfEPbr3-1" vertex="1">
          <mxGeometry x="70" y="100" width="60" height="30" as="geometry" />
        </mxCell>
        <mxCell id="eSSgnovP-sxsgvO_Ltb2-1" value="1 1" style="text;html=1;align=center;verticalAlign=middle;whiteSpace=wrap;rounded=0;" parent="kpHg-WS_h5mBCmfEPbr3-1" vertex="1">
          <mxGeometry x="190" y="249" width="60" height="30" as="geometry" />
        </mxCell>
        <mxCell id="eSSgnovP-sxsgvO_Ltb2-2" value="N 1" style="text;html=1;align=center;verticalAlign=middle;whiteSpace=wrap;rounded=0;" parent="kpHg-WS_h5mBCmfEPbr3-1" vertex="1">
          <mxGeometry x="180" y="300" width="60" height="30" as="geometry" />
        </mxCell>
        <mxCell id="eSSgnovP-sxsgvO_Ltb2-3" value="1 1" style="text;html=1;align=center;verticalAlign=middle;whiteSpace=wrap;rounded=0;" parent="kpHg-WS_h5mBCmfEPbr3-1" vertex="1">
          <mxGeometry x="980" y="690" width="60" height="30" as="geometry" />
        </mxCell>
        <mxCell id="eSSgnovP-sxsgvO_Ltb2-4" value="N 1" style="text;html=1;align=center;verticalAlign=middle;whiteSpace=wrap;rounded=0;" parent="kpHg-WS_h5mBCmfEPbr3-1" vertex="1">
          <mxGeometry x="700" y="490" width="60" height="30" as="geometry" />
        </mxCell>
        <mxCell id="eSSgnovP-sxsgvO_Ltb2-5" value="? ?" style="text;html=1;align=center;verticalAlign=middle;whiteSpace=wrap;rounded=0;" parent="kpHg-WS_h5mBCmfEPbr3-1" vertex="1">
          <mxGeometry x="510" y="240" width="60" height="30" as="geometry" />
        </mxCell>
        <mxCell id="eSSgnovP-sxsgvO_Ltb2-6" value="? ?&amp;nbsp;" style="text;html=1;align=center;verticalAlign=middle;whiteSpace=wrap;rounded=0;" parent="kpHg-WS_h5mBCmfEPbr3-1" vertex="1">
          <mxGeometry x="860" y="100" width="60" height="30" as="geometry" />
        </mxCell>
      </root>
    </mxGraphModel>
  </diagram>
  <diagram name="MCD V2" id="QWUY-YmeS_WgCBdhzD8Q">
    <mxGraphModel dx="1434" dy="836" grid="1" gridSize="10" guides="1" tooltips="1" connect="1" arrows="1" fold="1" page="1" pageScale="1" pageWidth="1169" pageHeight="827" math="0" shadow="0">
      <root>
        <mxCell id="zceYkJLKwQc8y5kZqPf0-0" />
        <mxCell id="zceYkJLKwQc8y5kZqPf0-1" parent="zceYkJLKwQc8y5kZqPf0-0" />
        <mxCell id="zceYkJLKwQc8y5kZqPf0-2" value="user" style="swimlane;fontStyle=0;childLayout=stackLayout;horizontal=1;startSize=30;horizontalStack=0;resizeParent=1;resizeParentMax=0;resizeLast=0;collapsible=1;marginBottom=0;whiteSpace=wrap;html=1;" vertex="1" parent="zceYkJLKwQc8y5kZqPf0-1">
          <mxGeometry x="780" y="480" width="140" height="270" as="geometry" />
        </mxCell>
        <mxCell id="zceYkJLKwQc8y5kZqPf0-3" value="id" style="text;strokeColor=none;fillColor=none;align=left;verticalAlign=middle;spacingLeft=4;spacingRight=4;overflow=hidden;points=[[0,0.5],[1,0.5]];portConstraint=eastwest;rotatable=0;whiteSpace=wrap;html=1;" vertex="1" parent="zceYkJLKwQc8y5kZqPf0-2">
          <mxGeometry y="30" width="140" height="30" as="geometry" />
        </mxCell>
        <mxCell id="zceYkJLKwQc8y5kZqPf0-4" value="username" style="text;strokeColor=none;fillColor=none;align=left;verticalAlign=middle;spacingLeft=4;spacingRight=4;overflow=hidden;points=[[0,0.5],[1,0.5]];portConstraint=eastwest;rotatable=0;whiteSpace=wrap;html=1;" vertex="1" parent="zceYkJLKwQc8y5kZqPf0-2">
          <mxGeometry y="60" width="140" height="30" as="geometry" />
        </mxCell>
        <mxCell id="zceYkJLKwQc8y5kZqPf0-5" value="password" style="text;strokeColor=none;fillColor=none;align=left;verticalAlign=middle;spacingLeft=4;spacingRight=4;overflow=hidden;points=[[0,0.5],[1,0.5]];portConstraint=eastwest;rotatable=0;whiteSpace=wrap;html=1;" vertex="1" parent="zceYkJLKwQc8y5kZqPf0-2">
          <mxGeometry y="90" width="140" height="30" as="geometry" />
        </mxCell>
        <mxCell id="zceYkJLKwQc8y5kZqPf0-6" value="email" style="text;strokeColor=none;fillColor=none;align=left;verticalAlign=middle;spacingLeft=4;spacingRight=4;overflow=hidden;points=[[0,0.5],[1,0.5]];portConstraint=eastwest;rotatable=0;whiteSpace=wrap;html=1;" vertex="1" parent="zceYkJLKwQc8y5kZqPf0-2">
          <mxGeometry y="120" width="140" height="30" as="geometry" />
        </mxCell>
        <mxCell id="zceYkJLKwQc8y5kZqPf0-7" value="statues" style="text;strokeColor=none;fillColor=none;align=left;verticalAlign=middle;spacingLeft=4;spacingRight=4;overflow=hidden;points=[[0,0.5],[1,0.5]];portConstraint=eastwest;rotatable=0;whiteSpace=wrap;html=1;" vertex="1" parent="zceYkJLKwQc8y5kZqPf0-2">
          <mxGeometry y="150" width="140" height="30" as="geometry" />
        </mxCell>
        <mxCell id="zceYkJLKwQc8y5kZqPf0-8" value="created_at" style="text;strokeColor=none;fillColor=none;align=left;verticalAlign=middle;spacingLeft=4;spacingRight=4;overflow=hidden;points=[[0,0.5],[1,0.5]];portConstraint=eastwest;rotatable=0;whiteSpace=wrap;html=1;" vertex="1" parent="zceYkJLKwQc8y5kZqPf0-2">
          <mxGeometry y="180" width="140" height="30" as="geometry" />
        </mxCell>
        <mxCell id="zceYkJLKwQc8y5kZqPf0-9" value="last_connection" style="text;strokeColor=none;fillColor=none;align=left;verticalAlign=middle;spacingLeft=4;spacingRight=4;overflow=hidden;points=[[0,0.5],[1,0.5]];portConstraint=eastwest;rotatable=0;whiteSpace=wrap;html=1;" vertex="1" parent="zceYkJLKwQc8y5kZqPf0-2">
          <mxGeometry y="210" width="140" height="30" as="geometry" />
        </mxCell>
        <mxCell id="zceYkJLKwQc8y5kZqPf0-10" value="roles_id" style="text;strokeColor=none;fillColor=none;align=left;verticalAlign=middle;spacingLeft=4;spacingRight=4;overflow=hidden;points=[[0,0.5],[1,0.5]];portConstraint=eastwest;rotatable=0;whiteSpace=wrap;html=1;" vertex="1" parent="zceYkJLKwQc8y5kZqPf0-2">
          <mxGeometry y="240" width="140" height="30" as="geometry" />
        </mxCell>
        <mxCell id="zceYkJLKwQc8y5kZqPf0-11" value="role" style="swimlane;fontStyle=0;childLayout=stackLayout;horizontal=1;startSize=30;horizontalStack=0;resizeParent=1;resizeParentMax=0;resizeLast=0;collapsible=1;marginBottom=0;whiteSpace=wrap;html=1;" vertex="1" parent="zceYkJLKwQc8y5kZqPf0-1">
          <mxGeometry x="1010" y="450" width="140" height="90" as="geometry" />
        </mxCell>
        <mxCell id="zceYkJLKwQc8y5kZqPf0-12" value="id" style="text;strokeColor=none;fillColor=none;align=left;verticalAlign=middle;spacingLeft=4;spacingRight=4;overflow=hidden;points=[[0,0.5],[1,0.5]];portConstraint=eastwest;rotatable=0;whiteSpace=wrap;html=1;" vertex="1" parent="zceYkJLKwQc8y5kZqPf0-11">
          <mxGeometry y="30" width="140" height="30" as="geometry" />
        </mxCell>
        <mxCell id="zceYkJLKwQc8y5kZqPf0-13" value="roles_name" style="text;strokeColor=none;fillColor=none;align=left;verticalAlign=middle;spacingLeft=4;spacingRight=4;overflow=hidden;points=[[0,0.5],[1,0.5]];portConstraint=eastwest;rotatable=0;whiteSpace=wrap;html=1;" vertex="1" parent="zceYkJLKwQc8y5kZqPf0-11">
          <mxGeometry y="60" width="140" height="30" as="geometry" />
        </mxCell>
        <mxCell id="zceYkJLKwQc8y5kZqPf0-14" value="sheet" style="swimlane;fontStyle=0;childLayout=stackLayout;horizontal=1;startSize=30;horizontalStack=0;resizeParent=1;resizeParentMax=0;resizeLast=0;collapsible=1;marginBottom=0;whiteSpace=wrap;html=1;" vertex="1" parent="zceYkJLKwQc8y5kZqPf0-1">
          <mxGeometry x="320" y="240" width="150" height="240" as="geometry" />
        </mxCell>
        <mxCell id="zceYkJLKwQc8y5kZqPf0-15" value="id" style="text;strokeColor=none;fillColor=none;align=left;verticalAlign=middle;spacingLeft=4;spacingRight=4;overflow=hidden;points=[[0,0.5],[1,0.5]];portConstraint=eastwest;rotatable=0;whiteSpace=wrap;html=1;" vertex="1" parent="zceYkJLKwQc8y5kZqPf0-14">
          <mxGeometry y="30" width="150" height="30" as="geometry" />
        </mxCell>
        <mxCell id="zceYkJLKwQc8y5kZqPf0-16" value="title" style="text;strokeColor=none;fillColor=none;align=left;verticalAlign=middle;spacingLeft=4;spacingRight=4;overflow=hidden;points=[[0,0.5],[1,0.5]];portConstraint=eastwest;rotatable=0;whiteSpace=wrap;html=1;" vertex="1" parent="zceYkJLKwQc8y5kZqPf0-14">
          <mxGeometry y="60" width="150" height="30" as="geometry" />
        </mxCell>
        <mxCell id="zceYkJLKwQc8y5kZqPf0-17" value="description" style="text;strokeColor=none;fillColor=none;align=left;verticalAlign=middle;spacingLeft=4;spacingRight=4;overflow=hidden;points=[[0,0.5],[1,0.5]];portConstraint=eastwest;rotatable=0;whiteSpace=wrap;html=1;" vertex="1" parent="zceYkJLKwQc8y5kZqPf0-14">
          <mxGeometry y="90" width="150" height="30" as="geometry" />
        </mxCell>
        <mxCell id="zceYkJLKwQc8y5kZqPf0-18" value="created_at" style="text;strokeColor=none;fillColor=none;align=left;verticalAlign=middle;spacingLeft=4;spacingRight=4;overflow=hidden;points=[[0,0.5],[1,0.5]];portConstraint=eastwest;rotatable=0;whiteSpace=wrap;html=1;" vertex="1" parent="zceYkJLKwQc8y5kZqPf0-14">
          <mxGeometry y="120" width="150" height="30" as="geometry" />
        </mxCell>
        <mxCell id="zceYkJLKwQc8y5kZqPf0-19" value="updated_at" style="text;strokeColor=none;fillColor=none;align=left;verticalAlign=middle;spacingLeft=4;spacingRight=4;overflow=hidden;points=[[0,0.5],[1,0.5]];portConstraint=eastwest;rotatable=0;whiteSpace=wrap;html=1;" vertex="1" parent="zceYkJLKwQc8y5kZqPf0-14">
          <mxGeometry y="150" width="150" height="30" as="geometry" />
        </mxCell>
        <mxCell id="zceYkJLKwQc8y5kZqPf0-20" value="status" style="text;strokeColor=none;fillColor=none;align=left;verticalAlign=middle;spacingLeft=4;spacingRight=4;overflow=hidden;points=[[0,0.5],[1,0.5]];portConstraint=eastwest;rotatable=0;whiteSpace=wrap;html=1;" vertex="1" parent="zceYkJLKwQc8y5kZqPf0-14">
          <mxGeometry y="180" width="150" height="30" as="geometry" />
        </mxCell>
        <mxCell id="zceYkJLKwQc8y5kZqPf0-21" value="user_id" style="text;strokeColor=none;fillColor=none;align=left;verticalAlign=middle;spacingLeft=4;spacingRight=4;overflow=hidden;points=[[0,0.5],[1,0.5]];portConstraint=eastwest;rotatable=0;whiteSpace=wrap;html=1;" vertex="1" parent="zceYkJLKwQc8y5kZqPf0-14">
          <mxGeometry y="210" width="150" height="30" as="geometry" />
        </mxCell>
        <mxCell id="zceYkJLKwQc8y5kZqPf0-22" value="tag" style="swimlane;fontStyle=0;childLayout=stackLayout;horizontal=1;startSize=30;horizontalStack=0;resizeParent=1;resizeParentMax=0;resizeLast=0;collapsible=1;marginBottom=0;whiteSpace=wrap;html=1;" vertex="1" parent="zceYkJLKwQc8y5kZqPf0-1">
          <mxGeometry x="1110" y="60" width="140" height="90" as="geometry" />
        </mxCell>
        <mxCell id="zceYkJLKwQc8y5kZqPf0-23" value="id" style="text;strokeColor=none;fillColor=none;align=left;verticalAlign=middle;spacingLeft=4;spacingRight=4;overflow=hidden;points=[[0,0.5],[1,0.5]];portConstraint=eastwest;rotatable=0;whiteSpace=wrap;html=1;" vertex="1" parent="zceYkJLKwQc8y5kZqPf0-22">
          <mxGeometry y="30" width="140" height="30" as="geometry" />
        </mxCell>
        <mxCell id="zceYkJLKwQc8y5kZqPf0-24" value="name" style="text;strokeColor=none;fillColor=none;align=left;verticalAlign=middle;spacingLeft=4;spacingRight=4;overflow=hidden;points=[[0,0.5],[1,0.5]];portConstraint=eastwest;rotatable=0;whiteSpace=wrap;html=1;" vertex="1" parent="zceYkJLKwQc8y5kZqPf0-22">
          <mxGeometry y="60" width="140" height="30" as="geometry" />
        </mxCell>
        <mxCell id="zceYkJLKwQc8y5kZqPf0-25" value="sheet_tag" style="swimlane;fontStyle=0;childLayout=stackLayout;horizontal=1;startSize=30;horizontalStack=0;resizeParent=1;resizeParentMax=0;resizeLast=0;collapsible=1;marginBottom=0;whiteSpace=wrap;html=1;" vertex="1" parent="zceYkJLKwQc8y5kZqPf0-1">
          <mxGeometry x="710" y="60" width="140" height="90" as="geometry" />
        </mxCell>
        <mxCell id="zceYkJLKwQc8y5kZqPf0-26" value="sheets_id" style="text;strokeColor=none;fillColor=none;align=left;verticalAlign=middle;spacingLeft=4;spacingRight=4;overflow=hidden;points=[[0,0.5],[1,0.5]];portConstraint=eastwest;rotatable=0;whiteSpace=wrap;html=1;" vertex="1" parent="zceYkJLKwQc8y5kZqPf0-25">
          <mxGeometry y="30" width="140" height="30" as="geometry" />
        </mxCell>
        <mxCell id="zceYkJLKwQc8y5kZqPf0-27" value="tags_id" style="text;strokeColor=none;fillColor=none;align=left;verticalAlign=middle;spacingLeft=4;spacingRight=4;overflow=hidden;points=[[0,0.5],[1,0.5]];portConstraint=eastwest;rotatable=0;whiteSpace=wrap;html=1;" vertex="1" parent="zceYkJLKwQc8y5kZqPf0-25">
          <mxGeometry y="60" width="140" height="30" as="geometry" />
        </mxCell>
        <mxCell id="zceYkJLKwQc8y5kZqPf0-46" value="dropzone" style="swimlane;fontStyle=0;childLayout=stackLayout;horizontal=1;startSize=30;horizontalStack=0;resizeParent=1;resizeParentMax=0;resizeLast=0;collapsible=1;marginBottom=0;whiteSpace=wrap;html=1;" vertex="1" parent="zceYkJLKwQc8y5kZqPf0-1">
          <mxGeometry x="40" y="290" width="140" height="150" as="geometry" />
        </mxCell>
        <mxCell id="zceYkJLKwQc8y5kZqPf0-47" value="id" style="text;strokeColor=none;fillColor=none;align=left;verticalAlign=middle;spacingLeft=4;spacingRight=4;overflow=hidden;points=[[0,0.5],[1,0.5]];portConstraint=eastwest;rotatable=0;whiteSpace=wrap;html=1;" vertex="1" parent="zceYkJLKwQc8y5kZqPf0-46">
          <mxGeometry y="30" width="140" height="30" as="geometry" />
        </mxCell>
        <mxCell id="zceYkJLKwQc8y5kZqPf0-48" value="backgroundcolor" style="text;strokeColor=none;fillColor=none;align=left;verticalAlign=middle;spacingLeft=4;spacingRight=4;overflow=hidden;points=[[0,0.5],[1,0.5]];portConstraint=eastwest;rotatable=0;whiteSpace=wrap;html=1;" vertex="1" parent="zceYkJLKwQc8y5kZqPf0-46">
          <mxGeometry y="60" width="140" height="30" as="geometry" />
        </mxCell>
        <mxCell id="NJQRcclc336_dsQxa-VE-0" value="item" style="text;strokeColor=none;fillColor=none;align=left;verticalAlign=middle;spacingLeft=4;spacingRight=4;overflow=hidden;points=[[0,0.5],[1,0.5]];portConstraint=eastwest;rotatable=0;whiteSpace=wrap;html=1;" vertex="1" parent="zceYkJLKwQc8y5kZqPf0-46">
          <mxGeometry y="90" width="140" height="30" as="geometry" />
        </mxCell>
        <mxCell id="zceYkJLKwQc8y5kZqPf0-49" value="sheet_id" style="text;strokeColor=none;fillColor=none;align=left;verticalAlign=middle;spacingLeft=4;spacingRight=4;overflow=hidden;points=[[0,0.5],[1,0.5]];portConstraint=eastwest;rotatable=0;whiteSpace=wrap;html=1;" vertex="1" parent="zceYkJLKwQc8y5kZqPf0-46">
          <mxGeometry y="120" width="140" height="30" as="geometry" />
        </mxCell>
        <mxCell id="zceYkJLKwQc8y5kZqPf0-50" style="edgeStyle=orthogonalEdgeStyle;rounded=0;orthogonalLoop=1;jettySize=auto;html=1;exitX=1;exitY=0.5;exitDx=0;exitDy=0;" edge="1" parent="zceYkJLKwQc8y5kZqPf0-1" source="zceYkJLKwQc8y5kZqPf0-21" target="zceYkJLKwQc8y5kZqPf0-3">
          <mxGeometry relative="1" as="geometry" />
        </mxCell>
        <mxCell id="zceYkJLKwQc8y5kZqPf0-51" style="edgeStyle=orthogonalEdgeStyle;rounded=0;orthogonalLoop=1;jettySize=auto;html=1;entryX=1;entryY=0.5;entryDx=0;entryDy=0;" edge="1" parent="zceYkJLKwQc8y5kZqPf0-1" source="zceYkJLKwQc8y5kZqPf0-12" target="zceYkJLKwQc8y5kZqPf0-10">
          <mxGeometry relative="1" as="geometry">
            <mxPoint x="890" y="700" as="sourcePoint" />
            <Array as="points">
              <mxPoint x="980" y="495" />
              <mxPoint x="980" y="735" />
            </Array>
          </mxGeometry>
        </mxCell>
        <mxCell id="zceYkJLKwQc8y5kZqPf0-52" style="edgeStyle=orthogonalEdgeStyle;rounded=0;orthogonalLoop=1;jettySize=auto;html=1;exitX=0;exitY=0.5;exitDx=0;exitDy=0;entryX=1;entryY=0.5;entryDx=0;entryDy=0;" edge="1" parent="zceYkJLKwQc8y5kZqPf0-1" source="zceYkJLKwQc8y5kZqPf0-24" target="zceYkJLKwQc8y5kZqPf0-27">
          <mxGeometry relative="1" as="geometry" />
        </mxCell>
        <mxCell id="zceYkJLKwQc8y5kZqPf0-53" style="edgeStyle=orthogonalEdgeStyle;rounded=0;orthogonalLoop=1;jettySize=auto;html=1;exitX=0;exitY=0.5;exitDx=0;exitDy=0;" edge="1" parent="zceYkJLKwQc8y5kZqPf0-1" source="zceYkJLKwQc8y5kZqPf0-26" target="zceYkJLKwQc8y5kZqPf0-15">
          <mxGeometry relative="1" as="geometry" />
        </mxCell>
        <mxCell id="zceYkJLKwQc8y5kZqPf0-56" value="bible" style="swimlane;fontStyle=0;childLayout=stackLayout;horizontal=1;startSize=30;horizontalStack=0;resizeParent=1;resizeParentMax=0;resizeLast=0;collapsible=1;marginBottom=0;whiteSpace=wrap;html=1;" vertex="1" parent="zceYkJLKwQc8y5kZqPf0-1">
          <mxGeometry x="930" y="279" width="140" height="120" as="geometry" />
        </mxCell>
        <mxCell id="zceYkJLKwQc8y5kZqPf0-57" value="id" style="text;strokeColor=none;fillColor=none;align=left;verticalAlign=middle;spacingLeft=4;spacingRight=4;overflow=hidden;points=[[0,0.5],[1,0.5]];portConstraint=eastwest;rotatable=0;whiteSpace=wrap;html=1;" vertex="1" parent="zceYkJLKwQc8y5kZqPf0-56">
          <mxGeometry y="30" width="140" height="30" as="geometry" />
        </mxCell>
        <mxCell id="zceYkJLKwQc8y5kZqPf0-58" value="img_path" style="text;strokeColor=none;fillColor=none;align=left;verticalAlign=middle;spacingLeft=4;spacingRight=4;overflow=hidden;points=[[0,0.5],[1,0.5]];portConstraint=eastwest;rotatable=0;whiteSpace=wrap;html=1;" vertex="1" parent="zceYkJLKwQc8y5kZqPf0-56">
          <mxGeometry y="60" width="140" height="30" as="geometry" />
        </mxCell>
        <mxCell id="zceYkJLKwQc8y5kZqPf0-59" value="sheet_id" style="text;strokeColor=none;fillColor=none;align=left;verticalAlign=middle;spacingLeft=4;spacingRight=4;overflow=hidden;points=[[0,0.5],[1,0.5]];portConstraint=eastwest;rotatable=0;whiteSpace=wrap;html=1;" vertex="1" parent="zceYkJLKwQc8y5kZqPf0-56">
          <mxGeometry y="90" width="140" height="30" as="geometry" />
        </mxCell>
        <mxCell id="zceYkJLKwQc8y5kZqPf0-60" value="" style="endArrow=classic;html=1;rounded=0;exitX=0;exitY=0.5;exitDx=0;exitDy=0;entryX=1;entryY=0.5;entryDx=0;entryDy=0;" edge="1" parent="zceYkJLKwQc8y5kZqPf0-1">
          <mxGeometry width="50" height="50" relative="1" as="geometry">
            <mxPoint x="930" y="380" as="sourcePoint" />
            <mxPoint x="470" y="300" as="targetPoint" />
            <Array as="points">
              <mxPoint x="680" y="380" />
              <mxPoint x="680" y="300" />
              <mxPoint x="590" y="300" />
            </Array>
          </mxGeometry>
        </mxCell>
        <mxCell id="zceYkJLKwQc8y5kZqPf0-61" value="1 1" style="text;html=1;align=center;verticalAlign=middle;whiteSpace=wrap;rounded=0;" vertex="1" parent="zceYkJLKwQc8y5kZqPf0-1">
          <mxGeometry x="620" y="270" width="60" height="30" as="geometry" />
        </mxCell>
        <mxCell id="zceYkJLKwQc8y5kZqPf0-63" value="N 1" style="text;html=1;align=center;verticalAlign=middle;whiteSpace=wrap;rounded=0;" vertex="1" parent="zceYkJLKwQc8y5kZqPf0-1">
          <mxGeometry x="490" y="430" width="60" height="30" as="geometry" />
        </mxCell>
        <mxCell id="zceYkJLKwQc8y5kZqPf0-64" value="1 N" style="text;html=1;align=center;verticalAlign=middle;whiteSpace=wrap;rounded=0;" vertex="1" parent="zceYkJLKwQc8y5kZqPf0-1">
          <mxGeometry x="1050" y="100" width="60" height="30" as="geometry" />
        </mxCell>
        <mxCell id="zceYkJLKwQc8y5kZqPf0-65" value="N 1" style="text;html=1;align=center;verticalAlign=middle;whiteSpace=wrap;rounded=0;" vertex="1" parent="zceYkJLKwQc8y5kZqPf0-1">
          <mxGeometry x="620" y="70" width="60" height="30" as="geometry" />
        </mxCell>
        <mxCell id="zceYkJLKwQc8y5kZqPf0-66" value="N 1" style="text;html=1;align=center;verticalAlign=middle;whiteSpace=wrap;rounded=0;" vertex="1" parent="zceYkJLKwQc8y5kZqPf0-1">
          <mxGeometry x="780" y="330" width="60" height="30" as="geometry" />
        </mxCell>
        <mxCell id="zceYkJLKwQc8y5kZqPf0-69" value="Create" style="rounded=0;whiteSpace=wrap;html=1;" vertex="1" parent="zceYkJLKwQc8y5kZqPf0-1">
          <mxGeometry x="560" y="450" width="120" height="60" as="geometry" />
        </mxCell>
        <mxCell id="zceYkJLKwQc8y5kZqPf0-70" value="associer" style="rounded=0;whiteSpace=wrap;html=1;" vertex="1" parent="zceYkJLKwQc8y5kZqPf0-1">
          <mxGeometry x="530" y="150" width="120" height="60" as="geometry" />
        </mxCell>
        <mxCell id="zceYkJLKwQc8y5kZqPf0-71" value="classer" style="rounded=0;whiteSpace=wrap;html=1;" vertex="1" parent="zceYkJLKwQc8y5kZqPf0-1">
          <mxGeometry x="620" y="310" width="120" height="60" as="geometry" />
        </mxCell>
        <mxCell id="zceYkJLKwQc8y5kZqPf0-72" value="possède" style="rounded=0;whiteSpace=wrap;html=1;" vertex="1" parent="zceYkJLKwQc8y5kZqPf0-1">
          <mxGeometry x="930" y="600" width="120" height="60" as="geometry" />
        </mxCell>
        <mxCell id="zceYkJLKwQc8y5kZqPf0-73" value="1 N" style="text;html=1;align=center;verticalAlign=middle;whiteSpace=wrap;rounded=0;" vertex="1" parent="zceYkJLKwQc8y5kZqPf0-1">
          <mxGeometry x="980" y="560" width="60" height="30" as="geometry" />
        </mxCell>
        <mxCell id="zceYkJLKwQc8y5kZqPf0-74" value="associer" style="rounded=0;whiteSpace=wrap;html=1;" vertex="1" parent="zceYkJLKwQc8y5kZqPf0-1">
          <mxGeometry x="930" y="110" width="120" height="60" as="geometry" />
        </mxCell>
        <mxCell id="zceYkJLKwQc8y5kZqPf0-78" value="1 1" style="text;html=1;align=center;verticalAlign=middle;whiteSpace=wrap;rounded=0;" vertex="1" parent="zceYkJLKwQc8y5kZqPf0-1">
          <mxGeometry x="980" y="690" width="60" height="30" as="geometry" />
        </mxCell>
        <mxCell id="zceYkJLKwQc8y5kZqPf0-79" value="N 1" style="text;html=1;align=center;verticalAlign=middle;whiteSpace=wrap;rounded=0;" vertex="1" parent="zceYkJLKwQc8y5kZqPf0-1">
          <mxGeometry x="700" y="490" width="60" height="30" as="geometry" />
        </mxCell>
        <mxCell id="zceYkJLKwQc8y5kZqPf0-80" value="1 N" style="text;html=1;align=center;verticalAlign=middle;whiteSpace=wrap;rounded=0;" vertex="1" parent="zceYkJLKwQc8y5kZqPf0-1">
          <mxGeometry x="510" y="240" width="60" height="30" as="geometry" />
        </mxCell>
        <mxCell id="zceYkJLKwQc8y5kZqPf0-81" value="N 1" style="text;html=1;align=center;verticalAlign=middle;whiteSpace=wrap;rounded=0;" vertex="1" parent="zceYkJLKwQc8y5kZqPf0-1">
          <mxGeometry x="860" y="100" width="60" height="30" as="geometry" />
        </mxCell>
        <mxCell id="NJQRcclc336_dsQxa-VE-1" style="edgeStyle=orthogonalEdgeStyle;rounded=0;orthogonalLoop=1;jettySize=auto;html=1;exitX=1;exitY=0.5;exitDx=0;exitDy=0;entryX=0;entryY=0.5;entryDx=0;entryDy=0;" edge="1" parent="zceYkJLKwQc8y5kZqPf0-1" source="zceYkJLKwQc8y5kZqPf0-49" target="zceYkJLKwQc8y5kZqPf0-15">
          <mxGeometry relative="1" as="geometry" />
        </mxCell>
        <mxCell id="NJQRcclc336_dsQxa-VE-2" value="associer" style="rounded=0;whiteSpace=wrap;html=1;" vertex="1" parent="zceYkJLKwQc8y5kZqPf0-1">
          <mxGeometry x="190" y="330" width="120" height="60" as="geometry" />
        </mxCell>
        <mxCell id="NJQRcclc336_dsQxa-VE-4" value="1 1" style="text;html=1;align=center;verticalAlign=middle;whiteSpace=wrap;rounded=0;" vertex="1" parent="zceYkJLKwQc8y5kZqPf0-1">
          <mxGeometry x="190" y="280" width="60" height="30" as="geometry" />
        </mxCell>
        <mxCell id="NJQRcclc336_dsQxa-VE-5" value="1 1" style="text;html=1;align=center;verticalAlign=middle;whiteSpace=wrap;rounded=0;" vertex="1" parent="zceYkJLKwQc8y5kZqPf0-1">
          <mxGeometry x="200" y="430" width="60" height="30" as="geometry" />
        </mxCell>
      </root>
    </mxGraphModel>
  </diagram>
</mxfile>
